HIERARCHY
ROOT Hips
{
	OFFSET -0.001795 -0.223333 0.028219
	CHANNELS 6 Xposition Yposition Zposition Zrotation Yrotation Xrotation 
	JOINT LeftUpLeg
	{
		OFFSET 0.069520 -0.091406 -0.006815
		CHANNELS 3 Zrotation Yrotation Xrotation
		JOINT LeftLeg
		{
			OFFSET 0.034277 -0.375199 -0.004496
			CHANNELS 3 Zrotation Yrotation Xrotation
			JOINT LeftFoot
			{
				OFFSET -0.013596 -0.397961 -0.043693
				CHANNELS 3 Zrotation Yrotation Xrotation
				JOINT LeftToe
				{
					OFFSET 0.026358 -0.055791 0.119288
					CHANNELS 3 Zrotation Yrotation Xrotation
					End Site
					{
						OFFSET 0.000000 0.000000 0.000000
					}
				}
			}
		}
	}
	JOINT RightUpLeg
	{
		OFFSET -0.067670 -0.090522 -0.004320
		CHANNELS 3 Zrotation Yrotation Xrotation
		JOINT RightLeg
		{
			OFFSET -0.038290 -0.382569 -0.008850
			CHANNELS 3 Zrotation Yrotation Xrotation
			JOINT RightFoot
			{
				OFFSET 0.015774 -0.398415 -0.042312
				CHANNELS 3 Zrotation Yrotation Xrotation
				JOINT RightToe
				{
					OFFSET -0.025372 -0.048144 0.123348
					CHANNELS 3 Zrotation Yrotation Xrotation
					End Site
					{
						OFFSET 0.000000 0.000000 0.000000
					}
				}
			}
		}
	}
	JOINT Spine
	{
		OFFSET -0.002533 0.108963 -0.026696
		CHANNELS 3 Zrotation Yrotation Xrotation
		JOINT Spine1
		{
			OFFSET 0.005487 0.135180 0.001092
			CHANNELS 3 Zrotation Yrotation Xrotation
			JOINT Spine2
			{
				OFFSET 0.001457 0.052922 0.025425
				CHANNELS 3 Zrotation Yrotation Xrotation
				JOINT Neck
				{
					OFFSET -0.002778 0.213870 -0.042857
					CHANNELS 3 Zrotation Yrotation Xrotation
					JOINT Head
					{
						OFFSET 0.005152 0.064970 0.051349
						CHANNELS 3 Zrotation Yrotation Xrotation
						End Site
						{
							OFFSET 0.000000 0.000000 0.000000
						}
					}
				}
				JOINT LeftShoulder
				{
					OFFSET 0.078845 0.121749 -0.034090
					CHANNELS 3 Zrotation Yrotation Xrotation
					JOINT LeftArm
					{
						OFFSET 0.090977 0.030469 -0.008868
						CHANNELS 3 Zrotation Yrotation Xrotation
						JOINT LeftForeArm
						{
							OFFSET 0.259612 -0.012772 -0.027456
							CHANNELS 3 Zrotation Yrotation Xrotation
							JOINT LeftHand
							{
								OFFSET 0.249234 0.008986 -0.001171
								CHANNELS 3 Zrotation Yrotation Xrotation
								End Site
								{
									OFFSET 0.000000 0.000000 0.000000
								}
							}
						}
					}
				}
				JOINT RightShoulder
				{
					OFFSET -0.081759 0.118833 -0.038615
					CHANNELS 3 Zrotation Yrotation Xrotation
					JOINT RightArm
					{
						OFFSET -0.096012 0.032551 -0.009143
						CHANNELS 3 Zrotation Yrotation Xrotation
						JOINT RightForeArm
						{
							OFFSET -0.253742 -0.013329 -0.021401
							CHANNELS 3 Zrotation Yrotation Xrotation
							JOINT RightHand
							{
								OFFSET -0.255298 0.007772 -0.005559
								CHANNELS 3 Zrotation Yrotation Xrotation
								End Site
								{
									OFFSET 0.000000 0.000000 0.000000
								}
							}
						}
					}
				}
			}
		}
	}
}
MOTION
Frames: 7
Frame Time: 0.050000
0.005104 0.935320 0.030854 -0.988471 -8.412594 6.575367 6.061552 -0.376230 -9.535996 -3.243242 0.548390 12.361098 4.831476 11.192703 8.194981 0.000000 0.000000 0.000000 -3.565538 1.166478 -13.087537 -2.546434 1.177830 12.472801 1.376107 -2.224760 9.237649 0.000000 0.000000 0.000000 4.932943 0.431650 -6.095628 1.294180 -0.521705 -4.492086 -8.492877 5.946830 1.596439 12.106648 -5.073869 -19.292650 0.000000 0.000000 0.000000 -0.503476 -11.284291 3.724859 -37.718146 -47.264017 10.279130 115.713542 -57.060388 -78.374820 0.000000 0.000000 0.000000 2.610917 1.781013 0.539512 39.569831 33.629354 7.255696 -141.924396 55.582217 -103.785393 0.000000 0.000000 0.000000 
0.005451 0.935145 0.028801 -0.836452 -7.890743 6.542794 5.917473 -0.405650 -9.797860 -3.150602 0.510683 12.443602 4.604927 10.814954 8.051852 0.000000 0.000000 0.000000 -3.599397 1.121720 -12.670028 -2.729046 1.139660 11.702960 1.147107 -2.575550 9.121684 0.000000 0.000000 0.000000 4.737187 0.412808 -6.012386 1.296892 -0.520987 -4.292630 -8.470727 5.553296 1.712581 11.977767 -5.062002 -19.055309 0.000000 0.000000 0.000000 -0.808116 -11.007447 3.628330 -36.675660 -46.699348 9.724740 115.316853 -57.519838 -78.426757 0.000000 0.000000 0.000000 2.550651 1.770810 0.534492 39.921276 33.398218 7.252376 -141.521142 56.078198 -103.886336 0.000000 0.000000 0.000000 
0.005595 0.935978 0.026625 -0.667356 -7.743354 6.498755 5.705648 -0.420173 -9.610936 -3.053322 0.471357 11.840512 4.487022 10.643631 8.276724 0.000000 0.000000 0.000000 -3.616126 1.090897 -12.340015 -3.002584 1.125429 10.948214 1.160761 -2.646329 9.351720 0.000000 0.000000 0.000000 4.555307 0.403507 -5.977777 1.256637 -0.505268 -4.147937 -8.217636 5.057630 1.557365 11.835276 -5.080646 -18.727565 0.000000 0.000000 0.000000 -0.456324 -11.084116 3.678926 -34.789289 -46.030052 8.905574 113.160980 -57.115114 -75.507704 0.000000 0.000000 0.000000 2.247630 2.026787 0.625640 39.613144 33.722191 7.282337 -139.277499 57.271733 -102.567623 0.000000 0.000000 0.000000 
0.005870 0.936837 0.024261 -0.463167 -7.427797 6.569487 5.513352 -0.446501 -9.729050 -3.023140 0.448737 11.461999 4.290344 10.355836 8.546612 0.000000 0.000000 0.000000 -3.754302 1.059407 -12.079956 -3.123792 1.072783 10.119762 1.106730 -2.854429 9.632552 0.000000 0.000000 0.000000 4.445718 0.393126 -5.945685 1.217141 -0.484369 -4.174970 -8.296121 4.529654 1.587079 11.889700 -5.165591 -18.607671 0.000000 0.000000 0.000000 0.135670 -11.314669 3.778180 -32.646779 -45.898946 8.155154 110.594387 -56.759237 -72.330165 0.000000 0.000000 0.000000 2.155744 2.509946 0.798009 38.789111 34.178516 7.213432 -136.940009 57.577624 -100.025419 0.000000 0.000000 0.000000 
0.006282 0.937595 0.021650 -0.324083 -7.432608 6.631203 5.210847 -0.471306 -9.732956 -2.775869 0.385973 10.996474 4.262285 10.336626 8.796572 0.000000 0.000000 0.000000 -3.734664 1.057380 -12.037701 -3.455937 1.085429 9.572083 1.182412 -2.840997 9.914106 0.000000 0.000000 0.000000 4.532787 0.378562 -5.773654 1.269868 -0.502445 -4.373714 -8.315835 4.373244 1.591660 11.778667 -5.068820 -18.834415 0.000000 0.000000 0.000000 0.715994 -11.744074 3.932145 -30.953799 -45.953701 7.601063 109.188035 -55.923211 -69.908634 0.000000 0.000000 0.000000 1.812835 2.837522 0.927338 38.463878 34.914785 7.375383 -135.145114 57.915675 -98.186257 0.000000 0.000000 0.000000 
0.006728 0.937892 0.019145 -0.272761 -7.468150 6.622140 5.011876 -0.488626 -9.794486 -2.552885 0.334793 10.824208 4.275372 10.367515 8.889190 0.000000 0.000000 0.000000 -3.768253 1.058642 -12.069593 -3.527494 1.076024 9.319236 1.240200 -2.802907 10.066216 0.000000 0.000000 0.000000 4.593776 0.359722 -5.553204 1.392212 -0.549855 -4.574683 -8.299574 4.114584 1.421929 11.766232 -5.052462 -18.954842 0.000000 0.000000 0.000000 0.898945 -12.023170 4.032355 -30.032517 -45.800896 7.287220 108.449460 -55.242384 -68.294314 0.000000 0.000000 0.000000 1.650222 3.461333 1.152752 37.999664 35.123656 7.325108 -134.311912 58.190962 -97.663612 0.000000 0.000000 0.000000 
0.006984 0.937638 0.017014 -0.214433 -7.125673 6.617488 4.948533 -0.505756 -9.980032 -2.470575 0.307749 10.806769 4.134222 10.129443 8.743462 0.000000 0.000000 0.000000 -3.790193 1.063850 -12.201772 -3.556719 1.088848 9.426649 1.071463 -3.082771 10.034711 0.000000 0.000000 0.000000 4.568304 0.346669 -5.446241 1.675586 -0.665664 -4.526483 -8.382661 3.843817 1.121898 11.582001 -4.940535 -18.928908 0.000000 0.000000 0.000000 0.688903 -12.038483 4.037794 -29.820298 -45.787988 7.242923 108.849093 -55.518308 -68.995216 0.000000 0.000000 0.000000 1.583758 3.588809 1.199285 37.634027 34.804842 7.148977 -134.988233 58.567435 -99.066503 0.000000 0.000000 0.000000 
